<?xml version="1.0" encoding="UTF-8"?><svg id="a" xmlns="http://www.w3.org/2000/svg" viewBox="0 0 841.89 595.28"><defs><style>.b{letter-spacing:.05em;}.c{fill:#f9b233;}.d{fill:#ffdf07;}.e{fill:#e94e1b;}.f{fill:#ef7d00;}.g{fill:#64add1;}.h{fill:#b5c20d;}.i{fill:#068dbc;}.j,.k{fill:#1d1d1b;}.l{fill:#70a72e;}.m{fill:#70ac8d;}.k{font-family:Aller-Light, Aller Light;font-size:20.64px;}.n{letter-spacing:.04em;}.o{letter-spacing:.06em;}.p{letter-spacing:.06em;}</style></defs><path class="j" d="M253.71,269.27h0c-.77-2.17-2.35-3.85-4.54-4.82-2.3-1.09-4.63-1.27-6.91-.52-2.3,.75-4.04,2.2-5.23,4.46l-20.55,44.77-20.82-44.9c-1.12-2.11-2.79-3.55-4.99-4.31-2.22-.76-4.53-.57-6.56,.51-2.3,1.09-3.88,2.7-4.7,4.79-.84,2.12-.75,4.38,.27,6.54l28.25,59.57c2.47,4.8,6.1,5.81,8.71,5.81s6.27-1.03,8.48-5.88l28.22-59.5c1.01-2.14,1.13-4.33,.37-6.5Z"/><path class="j" d="M269.62,246.64c3.1,0,5.81-1.13,8.03-3.36,2.23-2.23,3.36-4.93,3.36-8.03s-1.13-5.81-3.36-8.03c-2.23-2.23-4.93-3.36-8.03-3.36s-5.8,1.13-8.03,3.36-3.36,4.93-3.36,8.04,1.13,5.81,3.36,8.03c2.23,2.23,4.93,3.36,8.03,3.36Z"/><path class="i" d="M301.16,246.16c3.1,0,5.81-1.13,8.03-3.36,2.23-2.23,3.36-4.93,3.36-8.03s-1.13-5.81-3.36-8.03c-2.23-2.23-4.93-3.36-8.03-3.36s-5.8,1.13-8.03,3.36c-2.23,2.23-3.36,4.93-3.36,8.04s1.13,5.81,3.36,8.03c2.23,2.23,4.93,3.36,8.03,3.36Z"/><path class="g" d="M332.69,246.16c3.1,0,5.81-1.13,8.03-3.36,2.23-2.23,3.36-4.93,3.36-8.03s-1.13-5.81-3.36-8.03c-2.23-2.23-4.93-3.36-8.03-3.36s-5.8,1.13-8.03,3.36-3.36,4.93-3.36,8.04,1.13,5.81,3.36,8.03c2.23,2.23,4.93,3.36,8.03,3.36Z"/><path class="m" d="M364.23,246.16c3.1,0,5.81-1.13,8.03-3.36,2.23-2.23,3.36-4.93,3.36-8.03s-1.13-5.81-3.36-8.03c-2.23-2.23-4.93-3.36-8.03-3.36s-5.8,1.13-8.03,3.36c-2.23,2.23-3.36,4.93-3.36,8.04s1.13,5.81,3.36,8.03c2.23,2.23,4.93,3.36,8.03,3.36Z"/><path class="l" d="M395.76,246.16c3.1,0,5.81-1.13,8.03-3.36,2.23-2.23,3.36-4.93,3.36-8.03s-1.13-5.81-3.36-8.03c-2.23-2.23-4.93-3.36-8.03-3.36s-5.8,1.13-8.03,3.36-3.36,4.93-3.36,8.04,1.13,5.81,3.36,8.03c2.23,2.23,4.93,3.36,8.03,3.36Z"/><path class="h" d="M427.3,246.16c3.1,0,5.81-1.13,8.03-3.36,2.23-2.23,3.36-4.93,3.36-8.03s-1.13-5.81-3.36-8.03c-2.23-2.23-4.93-3.36-8.03-3.36s-5.8,1.13-8.03,3.36c-2.23,2.23-3.36,4.93-3.36,8.04s1.13,5.81,3.36,8.03c2.23,2.23,4.93,3.36,8.03,3.36Z"/><path class="d" d="M486.01,245.79c3.1,0,5.81-1.13,8.03-3.36,2.23-2.23,3.36-4.93,3.36-8.03s-1.13-5.81-3.36-8.03c-2.23-2.23-4.93-3.36-8.03-3.36s-5.8,1.13-8.03,3.36c-2.23,2.23-3.36,4.93-3.36,8.04s1.13,5.81,3.36,8.03c2.23,2.23,4.93,3.36,8.03,3.36Z"/><path class="c" d="M516.38,245.79c3.1,0,5.81-1.13,8.03-3.36,2.23-2.23,3.36-4.93,3.36-8.03s-1.13-5.81-3.36-8.03c-2.23-2.23-4.93-3.36-8.03-3.36s-5.8,1.13-8.03,3.36c-2.23,2.23-3.36,4.93-3.36,8.04s1.13,5.81,3.36,8.03c2.23,2.23,4.93,3.36,8.03,3.36Z"/><path class="f" d="M546.75,245.79c3.1,0,5.81-1.13,8.03-3.36,2.23-2.23,3.36-4.93,3.36-8.03s-1.13-5.81-3.36-8.03c-2.23-2.23-4.93-3.36-8.03-3.36s-5.8,1.13-8.03,3.36c-2.23,2.23-3.36,4.93-3.36,8.04s1.13,5.81,3.36,8.03c2.23,2.23,4.93,3.36,8.03,3.36Z"/><path class="e" d="M602.13,245.79c3.1,0,5.81-1.13,8.03-3.36,2.23-2.23,3.36-4.93,3.36-8.03s-1.13-5.81-3.36-8.03c-2.23-2.23-4.93-3.36-8.03-3.36s-5.8,1.13-8.03,3.36c-2.23,2.23-3.36,4.93-3.36,8.04s1.13,5.81,3.36,8.03c2.23,2.23,4.93,3.36,8.03,3.36Z"/><path class="j" d="M269.62,263.27c-2.64,0-4.89,.87-6.67,2.6-1.81,1.75-2.73,4.04-2.73,6.8v59.23c0,2.66,.91,4.92,2.69,6.7,1.79,1.79,4.04,2.7,6.71,2.7s5.05-.92,6.8-2.73c1.72-1.78,2.6-4.03,2.6-6.67v-59.23c0-2.75-.88-5.02-2.63-6.77-1.75-1.74-4.02-2.63-6.77-2.63Z"/><path class="j" d="M359.94,269.27h0c-.77-2.17-2.35-3.85-4.54-4.82-2.3-1.09-4.63-1.27-6.91-.52-2.3,.75-4.04,2.2-5.23,4.46l-20.55,44.77-20.82-44.9c-1.12-2.11-2.79-3.55-4.99-4.31-2.22-.76-4.53-.57-6.56,.51-2.3,1.09-3.88,2.7-4.7,4.79-.84,2.12-.75,4.38,.27,6.54l28.25,59.57c2.47,4.8,6.1,5.81,8.71,5.81s6.27-1.03,8.48-5.88l28.22-59.5c1.01-2.14,1.13-4.33,.37-6.5Z"/><path class="j" d="M432.09,282.14h0c-3.45-5.96-8.18-10.73-14.04-14.18-5.88-3.46-12.6-5.22-19.96-5.22s-14.09,1.75-20.02,5.22c-5.92,3.46-10.67,8.23-14.12,14.19-3.46,5.96-5.21,12.76-5.21,20.21s1.6,14.17,4.77,20.07c3.17,5.92,7.58,10.69,13.09,14.15,5.54,3.49,11.88,5.26,18.83,5.26s13.28-1.77,18.83-5.26c1.51-.95,2.95-2.03,4.33-3.23,.25,2.1,1.13,3.91,2.61,5.39,1.79,1.79,4.04,2.7,6.71,2.7s4.92-.91,6.7-2.69c1.79-1.79,2.7-4.04,2.7-6.7v-29.68c0-7.44-1.75-14.24-5.21-20.21Zm-34-2.21c4.01,0,7.63,.97,10.75,2.88,3.14,1.92,5.65,4.59,7.45,7.93,1.82,3.37,2.75,7.28,2.75,11.6s-.92,8.1-2.75,11.47c-1.81,3.35-4.32,6.01-7.45,7.94-3.16,1.94-6.67,2.88-10.75,2.88s-7.49-.94-10.69-2.89c-3.18-1.92-5.74-4.6-7.59-7.95-1.86-3.36-2.8-7.21-2.8-11.45s.94-8.22,2.8-11.58c1.85-3.35,4.4-6.02,7.59-7.95,3.17-1.91,6.76-2.89,10.69-2.89Z"/><path class="j" d="M470.74,338.68c-3.37,0-6.37-.93-8.99-2.79-2.62-1.86-4.66-4.44-6.12-7.72-1.46-3.28-2.2-7.1-2.2-11.45v-88.68c0-1.24,.38-2.22,1.13-2.93,.75-.71,1.71-1.07,2.86-1.07,1.24,0,2.22,.36,2.93,1.07,.71,.71,1.06,1.69,1.06,2.93v88.68c0,4.08,.87,7.43,2.6,10.05,1.73,2.62,3.97,3.93,6.72,3.93h3.33c.97,0,1.77,.36,2.4,1.07,.62,.71,.93,1.69,.93,2.93,0,1.15-.36,2.11-1.07,2.86-.71,.76-1.69,1.13-2.93,1.13h-2.66Z"/><path class="j" d="M602.17,331.69c-.75-.75-1.75-1.13-2.99-1.13h-2.93c-5.06,0-9.18-1.62-12.38-4.86-3.19-3.24-4.79-7.43-4.79-12.58v-40.49h17.57c1.07,0,1.93-.33,2.59-1,.67-.67,1-1.53,1-2.6s-.33-1.93-1-2.6c-.67-.67-1.53-1-2.59-1h-17.57v-36.68c0-1.24-.38-2.24-1.13-2.99-.76-.75-1.75-1.13-3-1.13-1.15,0-2.11,.38-2.86,1.13-.76,.75-1.13,1.75-1.13,2.99v36.68h-10.38c-1.07,0-1.93,.33-2.59,1-.67,.67-1,1.53-1,2.6s.33,1.93,1,2.6c.67,.67,1.53,1,2.59,1h10.38v40.49c0,4.88,1.07,9.25,3.19,13.11,2.13,3.86,5.1,6.88,8.92,9.05,3.82,2.18,8.16,3.31,13.04,3.39h3.06c1.24,0,2.24-.38,2.99-1.13,.75-.75,1.13-1.71,1.13-2.86,0-1.24-.38-2.24-1.13-3Z"/><path class="j" d="M671.98,282.45c-2.84-5.37-6.79-9.58-11.85-12.65-5.06-3.06-10.87-4.59-17.44-4.59s-12.56,1.6-17.7,4.79c-5.15,3.19-9.18,7.57-12.11,13.11-2.93,5.55-4.39,11.96-4.39,19.23s1.55,13.58,4.66,19.17c3.1,5.59,7.39,9.96,12.85,13.11,5.46,3.15,11.69,4.73,18.7,4.73,4.17,0,8.54-.84,13.11-2.53,4.57-1.68,8.27-3.81,11.11-6.39,.89-.8,1.31-1.68,1.26-2.66-.05-.97-.56-1.86-1.53-2.66-.71-.62-1.58-.91-2.59-.87-1.02,.05-1.89,.42-2.59,1.13-2.04,1.95-4.81,3.53-8.32,4.73-3.51,1.2-6.99,1.8-10.45,1.8-5.5,0-10.38-1.26-14.64-3.79-4.26-2.53-7.58-6.01-9.98-10.45-2.05-3.8-3.17-8.13-3.47-12.91h55.77c1.15,0,2.08-.33,2.8-1,.71-.67,1.06-1.57,1.06-2.73,0-7.01-1.42-13.2-4.26-18.57Zm-52.11,4.46c2.26-4.44,5.37-7.92,9.32-10.45,3.95-2.53,8.45-3.79,13.51-3.79,5.32,0,9.96,1.26,13.91,3.79,3.95,2.53,6.99,6.01,9.12,10.45,1.57,3.27,2.5,6.92,2.82,10.91h-51.81c.44-4.02,1.48-7.66,3.14-10.91Z"/><path class="j" d="M548.53,266.57c-.75-.71-1.75-1.07-2.99-1.07-1.15,0-2.11,.36-2.86,1.07-.75,.71-1.13,1.69-1.13,2.93v41.6c-.14,3.68-1.2,7-3.27,9.94-2.22,3.15-5.24,5.66-9.05,7.52-3.82,1.86-8.12,2.79-12.91,2.79s-9.25-.95-13.11-2.86c-3.86-1.91-6.92-4.79-9.18-8.65-2.26-3.86-3.39-8.67-3.39-14.44v-35.8c0-1.15-.38-2.11-1.13-2.86-.76-.75-1.71-1.13-2.86-1.13s-2.11,.38-2.86,1.13c-.76,.75-1.13,1.71-1.13,2.86v35.8c0,7.28,1.48,13.44,4.46,18.5,2.97,5.06,6.99,8.9,12.04,11.51,5.06,2.62,10.78,3.93,17.17,3.93,5.77,0,10.98-1.26,15.64-3.79,3.78-2.05,6.95-4.75,9.59-8.03v16.56c0,4.44-.98,8.39-2.93,11.85-1.95,3.46-4.64,6.17-8.05,8.12-3.42,1.95-7.39,2.93-11.91,2.93-1.15,0-2.13,.38-2.93,1.13-.8,.75-1.2,1.75-1.2,2.99,0,1.15,.4,2.11,1.2,2.86,.8,.75,1.78,1.13,2.93,1.13,6.04,0,11.38-1.33,16.04-3.99,4.66-2.66,8.32-6.32,10.98-10.98,2.66-4.66,3.99-10,3.99-16.04v-74.58c0-1.24-.38-2.22-1.13-2.93Z"/><text class="k" transform="translate(260.13 375.23)"><tspan class="p" x="0" y="0">SMA</tspan><tspan class="b" x="44.13" y="0">R</tspan><tspan class="o" x="57.28" y="0">T LED SO</tspan><tspan class="n" x="149.63" y="0">L</tspan><tspan class="o" x="160.61" y="0">UTIONS</tspan></text></svg>